<svg height="200" width="200" viewBox="0 0 33 33" role="img" xmlns="http://www.w3.org/2000/svg"><path fill="#FFFFFF" d="M0,0 h33v33H0z" shape-rendering="crispEdges"/><path fill="#000000" d="M0 0h7v1H0zM8 0h1v1H8zM12 0h1v1H12zM18 0h1v1H18zM20 0h5v1H20zM26,0 h7v1H26zM0 1h1v1H0zM6 1h1v1H6zM10 1h6v1H10zM19 1h1v1H19zM22 1h2v1H22zM26 1h1v1H26zM32,1 h1v1H32zM0 2h1v1H0zM2 2h3v1H2zM6 2h1v1H6zM14 2h1v1H14zM16 2h1v1H16zM18 2h1v1H18zM22 2h3v1H22zM26 2h1v1H26zM28 2h3v1H28zM32,2 h1v1H32zM0 3h1v1H0zM2 3h3v1H2zM6 3h1v1H6zM8 3h2v1H8zM11 3h3v1H11zM15 3h2v1H15zM19 3h1v1H19zM22 3h1v1H22zM24 3h1v1H24zM26 3h1v1H26zM28 3h3v1H28zM32,3 h1v1H32zM0 4h1v1H0zM2 4h3v1H2zM6 4h1v1H6zM9 4h1v1H9zM13 4h1v1H13zM15 4h1v1H15zM19 4h2v1H19zM22 4h1v1H22zM24 4h1v1H24zM26 4h1v1H26zM28 4h3v1H28zM32,4 h1v1H32zM0 5h1v1H0zM6 5h1v1H6zM9 5h1v1H9zM12 5h3v1H12zM18 5h2v1H18zM23 5h2v1H23zM26 5h1v1H26zM32,5 h1v1H32zM0 6h7v1H0zM8 6h1v1H8zM10 6h1v1H10zM12 6h1v1H12zM14 6h1v1H14zM16 6h1v1H16zM18 6h1v1H18zM20 6h1v1H20zM22 6h1v1H22zM24 6h1v1H24zM26,6 h7v1H26zM9 7h1v1H9zM14 7h1v1H14zM18 7h4v1H18zM23 7h1v1H23zM2 8h1v1H2zM4 8h3v1H4zM8 8h2v1H8zM11 8h1v1H11zM13 8h1v1H13zM15 8h1v1H15zM17 8h2v1H17zM21 8h2v1H21zM25 8h1v1H25zM29 8h1v1H29zM32,8 h1v1H32zM3 9h2v1H3zM7 9h1v1H7zM9 9h1v1H9zM12 9h2v1H12zM16 9h4v1H16zM24 9h1v1H24zM26 9h1v1H26zM29 9h1v1H29zM31,9 h2v1H31zM2 10h3v1H2zM6 10h2v1H6zM9 10h1v1H9zM12 10h2v1H12zM19 10h1v1H19zM21 10h1v1H21zM24 10h1v1H24zM28,10 h5v1H28zM3 11h3v1H3zM7 11h4v1H7zM14 11h1v1H14zM17 11h3v1H17zM24 11h1v1H24zM31 11h1v1H31zM1 12h1v1H1zM5 12h2v1H5zM8 12h1v1H8zM10 12h1v1H10zM12 12h1v1H12zM14 12h3v1H14zM20 12h1v1H20zM24 12h4v1H24zM31 12h1v1H31zM1 13h4v1H1zM15 13h1v1H15zM18 13h1v1H18zM24 13h1v1H24zM26 13h1v1H26zM29 13h1v1H29zM31,13 h2v1H31zM0 14h3v1H0zM4 14h3v1H4zM10 14h1v1H10zM15 14h2v1H15zM20 14h2v1H20zM25 14h4v1H25zM31,14 h2v1H31zM0 15h3v1H0zM5 15h1v1H5zM8 15h1v1H8zM10 15h2v1H10zM13 15h2v1H13zM17 15h2v1H17zM20 15h4v1H20zM27 15h1v1H27zM29 15h1v1H29zM31,15 h2v1H31zM1 16h1v1H1zM4 16h3v1H4zM8 16h2v1H8zM12 16h3v1H12zM18 16h2v1H18zM21 16h3v1H21zM26 16h1v1H26zM31 16h1v1H31zM2 17h1v1H2zM4 17h2v1H4zM9 17h2v1H9zM13 17h1v1H13zM15 17h1v1H15zM17 17h1v1H17zM19 17h2v1H19zM25 17h2v1H25zM29 17h2v1H29zM32,17 h1v1H32zM0 18h1v1H0zM5 18h5v1H5zM11 18h7v1H11zM20 18h2v1H20zM26 18h1v1H26zM28 18h1v1H28zM30,18 h3v1H30zM0 19h1v1H0zM2 19h1v1H2zM5 19h1v1H5zM7 19h1v1H7zM10 19h1v1H10zM13 19h1v1H13zM15 19h1v1H15zM21 19h2v1H21zM25 19h2v1H25zM31,19 h2v1H31zM4 20h1v1H4zM6 20h1v1H6zM9 20h3v1H9zM13 20h5v1H13zM21 20h2v1H21zM24 20h1v1H24zM26 20h1v1H26zM29 20h1v1H29zM31,20 h2v1H31zM1 21h5v1H1zM7 21h8v1H7zM17 21h4v1H17zM23 21h3v1H23zM31,21 h2v1H31zM0 22h1v1H0zM2 22h1v1H2zM5 22h2v1H5zM9 22h1v1H9zM11 22h2v1H11zM14 22h2v1H14zM17 22h2v1H17zM20 22h2v1H20zM23 22h2v1H23zM26 22h1v1H26zM28,22 h5v1H28zM1 23h1v1H1zM5 23h1v1H5zM8 23h1v1H8zM10 23h4v1H10zM15 23h1v1H15zM19 23h4v1H19zM24 23h2v1H24zM0 24h1v1H0zM2 24h6v1H2zM10 24h2v1H10zM14 24h2v1H14zM17 24h1v1H17zM20 24h2v1H20zM23 24h6v1H23zM31 24h1v1H31zM8 25h3v1H8zM14 25h1v1H14zM16 25h2v1H16zM19 25h1v1H19zM21 25h1v1H21zM23 25h2v1H23zM28 25h1v1H28zM31,25 h2v1H31zM0 26h7v1H0zM9 26h3v1H9zM13 26h2v1H13zM17 26h1v1H17zM19 26h2v1H19zM22 26h3v1H22zM26 26h1v1H26zM28 26h2v1H28zM31,26 h2v1H31zM0 27h1v1H0zM6 27h1v1H6zM8 27h2v1H8zM13 27h1v1H13zM15 27h1v1H15zM17 27h6v1H17zM24 27h1v1H24zM28 27h1v1H28zM32,27 h1v1H32zM0 28h1v1H0zM2 28h3v1H2zM6 28h1v1H6zM8 28h1v1H8zM18 28h1v1H18zM22 28h1v1H22zM24 28h5v1H24zM31 28h1v1H31zM0 29h1v1H0zM2 29h3v1H2zM6 29h1v1H6zM9 29h1v1H9zM11 29h2v1H11zM15 29h2v1H15zM19 29h1v1H19zM22 29h3v1H22zM28 29h1v1H28zM30 29h1v1H30zM0 30h1v1H0zM2 30h3v1H2zM6 30h1v1H6zM8 30h2v1H8zM11 30h1v1H11zM13 30h1v1H13zM17 30h1v1H17zM19 30h2v1H19zM22 30h2v1H22zM25 30h1v1H25zM27 30h3v1H27zM32,30 h1v1H32zM0 31h1v1H0zM6 31h1v1H6zM10 31h1v1H10zM13 31h1v1H13zM16 31h1v1H16zM18 31h1v1H18zM20 31h2v1H20zM23 31h2v1H23zM27 31h1v1H27zM31 31h1v1H31zM0 32h7v1H0zM9 32h7v1H9zM17 32h1v1H17zM19 32h2v1H19zM22 32h3v1H22zM27 32h3v1H27zM31,32 h2v1H31z" shape-rendering="crispEdges"/></svg>