<?xml version="1.0" encoding="UTF-8"?>
<svg id="Calque_1" data-name="Calque 1" xmlns="http://www.w3.org/2000/svg" viewBox="0 0 1065.63 1074.46">
  <path d="M822.3,86.9c.23.56.41.82.14.95l-1.19.55-11.05-4.12,4.77,4.75c-2.9-.66-4.91-1.4-6.89-2.54l-2.82-1.27c-.82-.75-2.17-1.59-3.19-2.05-1.11-1.56-2.85-2.72-4.74-3.13,5.69-4.64-25.39-16.44-29.2-17.96-3.6-1.44-7.76-1.88-11-1.54l4.35,2.96c-4.5-.29-7.64-1.01-11.08-2.69-14.34-7.01-28.56-13.23-43.25-18.31l-.86-2.8c.28,0,.68.04.85-.06l2-1.17c5.28-3.08-19.3-10.44-23.97-11.18-13-2.07-25.84-2.05-38.13-6.4-6-2.13-11.14-4.55-18.06-4.91-12.58-.65-25.76-2.86-37.97,1.41-2.89,1.01-3.47,1.56-6.5.61-10.97-3.46-22.57-3.13-33.96-4.07-12.25-1.01-23.97-1.03-36.21-1.3-2.96-.06-6.63-2.11-9.94-1.09-5.36,1.65-11.18,2.63-15.82,5.27-13.26,7.55-6.35.26-24.5,5.25l-15.18,4.18c-3.45.95-8.1-2.84-10.87,1.05l5.14.79-7.02.63c-.57.05-2.67-1.31-2.29-1.73s1.22-1.29,1.69-1.66l7.02-5.47c-8.02-.94-14.28-1.03-20.1,1.4.67,1.55,1.43,2.82.83,2.97-.74.19-2.42.13-2.36-.49l.3-3.44-16.34,2.05c-1.49.19-3.39,3.37-3,4.78,1.66,6.08,6.16,7.46,11.23,9.13-20.49,3.21-25.41,1.29-43.83,11.24-8.86,4.78-9.13-.55-23.65,7.8l3.68-7.1c-15.01,5.05-27.53,11.55-38.14,21.43,4.06-.61,7.59-1.74,9.94-3.35l.86,2.22c-6.3,4.15-18.29,9.97-26.22,11.75l-11.01,2.47,23.69-19.64c4.14-3.44,8.18-6.38,11.72-10.43-17.31,1.27-36.32,23.31-46.9,36.11-1.8,2.18-6.18,2.75-9.03,2.71l-1.49-3.93c-2.84,2.25-6.88,4.32-9.54,7.04l-25.37,26.03c-3.59,3.69-12.11,7.93-15.87,10.95-1.28,1.03-4.78.4-6.85.16l-11.25,14-3.31-3.41c-2.84,2.1-5.01,6.83-5.33,10.46-6.57,5.9-14.68,10.84-22.6,16.31,2.83.98,4.48-.76,8.02-1.53l-9.67,11.06c-1.09,1.25-3.8,3.03-5.19,3.81.44-1.94,2.2-5.53,1.14-6.47-1.71-1.52-4.55-2.71-6.91-3.56l-4.8,8.87c-.71,1.31-.99,4.04-.97,5.53,0,.36-.59.75-.91.91-1.07.5-2.53,1.95-3.07,3.16l-9.22,20.39-1.18-4.67-31.25,46.5c-4.29,6.39-8.23,12.02-13.04,17.91-3.48,4.24-5.7,9.64-8.8,14.35-2.22,3.36-4.24,8.14-4.65,12.05-1.28.07-2.99,1.35-3.54,2.62l-5.82,13.5c-8.31,19.28-1.38,12.22-7.51,23.43-.87,1.59-1.89,3.26-3.1,3.54.29-.74.13-2.32-.09-3.04l.84-2.4-4.88-1.36c-6.03,16.71-10.22,34.1-12.25,51.73-.57,4.97-.91,10.26-2.32,14.73l-8.97,28.31c-.76,2.4-1.89,6.46-2.51,8.99l-1.52,6.18-4.11-5.85-.15,17.13c0,.66,1.98,2.7,1.93,2.5-.44,3.24-2.21,7.31-2.2,11.27l.18,38.45c0,.81-1.91,2.46-1.92,3.38-.13,7.74-1.03,21.58-2.39,30.69s1.26,15.84,3.02,24.4l2.81,13.64c-.56,1.19-1.84,3.93-1.63,5.14l9.21,53.26,2.26-4.53c3.17,6.78-2.12,15.83,2,24.81l6.46,14.08c-.72,1.24-1.66,3.25-1.42,4.28l3.96,16.87c1.46,6.22,5.39,12.27,5.86,18.31.97,12.5,2.89,5.72,7.96,18.07,4.21,10.24,8.64,14.47,8.79,22-.44.35-1.12.89-.67.53-2.76-5.57-4.33-9.05-8.36-13.36,2.45,5.75,4.69,11.61,8.14,16.83l7.71,11.66,10.39,20.08c2.46,4.76,6.43,9.4,8.13,14.35,7.7,22.53,21.1,21.21,26.73,38.69,2.13,1.69,5.38,3.97,7.07,6.03l20.03,24.43c-.05.45-.33,2.51.2,2.94.66.54,1.8,1.25,2.75,1.67l2.39,4.61c.78,1.5,1.39,4.87,2.88,6.1l19.16,15.72c-.92,3.44.41,5.65,3.29,8l10.87,8.87-.25-3.62c-.38-5.5,10.91,12.29,11.17,11.65l33.86,27.51c3.88,3.15,8.89,8.5,13.27,8.83l4.75.36c.94.07.84,2.41.93,4.12,9.92,6.05,20.92,11.91,31.65,16.89,5.87,2.73,9.9,6.24,14.9,10.28,5.43,4.39,13,6.4,19.07,9.27l-5.31,1.07c5.21,2.41,9.84,3.27,13.23,5.85,5.67,4.31,13.55,4.9,21.16,6.94,8.41,2.25,16.33,5.68,24.28,9.08-4.37,2.02-7.47-1.17-11.95-1.52,4.68,7.64,13.99,4.33,20.57,6.16l29.79,8.29c3.46.96,6.89,2.74,11.27,3.35l-7.31.8c7.2,4.99,23.92-1.84,31.59,6.24l15.79.52c1.14.04,3.92-1.16,5.06-1.35,5.79-.94,12.16,2.39,17.73,2.51,9.17.2,17.06-.53,26.71,2.9,7.14,2.54,21.22,4.84,28.36,3.8.39-.06,1.5-.06,1.53-.45l.15-2.46,8.26-.18,17.08-.67-2.2,1.58c15.57.52,20.94-2.28,35.27-1.86-2.81,1.01-5.43,1.67-8.85,3.53l14.86-1.73-4.46,2.54c8.33-.51,16.04-.87,22.44-4.34l-2.17-1.88,15.9-2.58.09-1.62c.76,0,2.28-.14,3.03-.18,2.7.89,6.28-.51,8.18-1.69,8.58-3.45,31.15-7.15,40.82-7.69,11.18-.62,22.37-2.97,31.15-9.13,3.59-.34,6.28-3.74,9.23-5.85,1.63-1.17,3.39-2.11,3.71-3.45l26.99-11.28c.56-.23,2.11-.6,2.53-.71.39-.1.04.69-.14.97l-2.59,1.71c1.79.46,5.6.62,7.05-.34l12.91-8.59c2.6-1.73,6.68-2.21,9.24-4.76,24.42-24.28,26.12-13.58,39.16-24.79,12.76-10.97,39.14-27.28,45.43-34.7l6.32-7.46c9.86-11.65,21.79-20.67,32.31-31.91,12.09-12.92,24.03-25.39,33.95-40.01l18.4-27.14c3.46,6.14,9.57-8.48,10.31-10.15.58-1.3,3.07-3.52,3.12-4.92.13-3.63,2.54-6.37,4.81-9.04,8.81-10.33,14.62-22.36,20.98-34.23,2.33-4.34,3.74-8.24,5.23-13.06.69-2.24,3.75-5.82,4.18-8.12.47-2.47.77-5.05,1.94-7.49,12.47-25.81,22.19-51.93,29.46-79.62,1.7-6.5,4.29-12.5,4.47-19.19.18-6.75,7.79-43.2,9.96-52.1.88-3.6.15-9.88,1.4-12.77l7.87-18.33c1.19-2.78,5.51-3.17,2.5-8.87l1.65,1.62c.34,7.36-.21,13.99-.34,21.33l-.28,16.08c-.12,6.87-8.21,31.67-4.03,28.41l.82-2.33c-.43,2.79.54,7.71-.15,10.53-16.54,67.37-38.25,137.01-77.46,194.29-2.16,3.15-3.72,5.93-5.37,9.15l-7.5,14.64c-5.1,9.96-20.29,15.73-14.61,19.7-9.04,11.88-18.88,23.56-29.79,34.23l-28.78,28.15-14.37,13.48-4.09-.04c-.86,0-1.07,3.24-1.84,3.92l-19.95,17.6c-4.73,4.17-10.38,6.57-15.8,10.04s-10.84,7.98-17.09,9.48c-4.22,1.01-8.22,1.7-10.52,4.9.74.82,1.32,1.89.73,2.25l-38.8,23.14c-14.82,8.84-29.92,14.47-45.56,20.9-19.71,8.1-29.48,8.44-49.16,16.74-.73-.23.21.22,1.38.73l2.65.45c.69-.33-.4.19-1.42.68l-23.85,6.28c-1.57.41-5.62-.88-7.19-.49l-23.18,5.84c-2.39.6-6.96-.89-9.64.16-5.97,2.36-10.87,3.85-17.54,4.48l3.34-2.51-18.26,2.08,2.73,1.92c.26.19-.07.7-.39.72l-2.13.16-22.49,1.61c-34.09,2.44-104.29-2.61-136.6-11.54l-33.48-9.25.12-3.19c.07-1.83-13.07-6.21-14.62-.34l-16.01-2.11c-10.26-1.35-20.03-4.17-29.33-8.68l-25.65-12.46-24.8-12.25-9.67-5.19c-21.1-11.32-33.41-20.4-51.6-34.59-1.2-.93-2.46-3.86-3.49-4.36-13.2-6.42-25.15-15.17-35.9-24.9-3.88-3.52-7.16-7.96-10.86-10.91-9.58-7.64-18.21-14.85-26.51-23.77l-15.41-16.56c-2.39-2.57-3.42-5.84-5.33-8.68-6.75-10.06-15.32-18.51-23.12-27.58-5.81-6.76-8.93-14.57-13.99-21.85l-22.7-32.67c-6.33-9.11-14-26.03-17.9-36.92-2.06-5.76-4.04-10.79-7.12-15.82l-.89,4.2c-3.85-16.21-21.15-42.64-22.52-57.97-.22-2.46,3.17-5.01.97-7.3l-4.89-5.08c-1.49-2.13-2.37-7.51-2.89-10.27.24-.34,1.65-2.02,1.65-2.67l-.04-21.55c-6.09-8.21-3.76-46.25-7.11-46.65l-2.22-.26-2.26-31.18.15-32.98c.02-4.63-1.84-9.1-1.59-14.01l1.8-35.04c.46-9,.51-17.58,1.87-26.43l1.88-12.15c.43-2.75,2.03-4.96,4.3-6.71-.49-8.01,1.89-16.93,3.59-24.69-4.58-7.3-1.8-28.68,3.87-30.03.84-2.96,1.39-7.16,2.8-11.03l10.81-29.88c1.53-.73,3.04-2.18,3.47-3.86,3.07-12.04,8.21-13.82,7.42-20.1,14.32-28.61,39.24-75.92,60.09-99.47,6.56-7.41,10.94-16.19,17.79-23.29l5.42-5.61,16.86-22.82c11.03-.6,10.91-10.83,19.04-17.87,1.57-1.36,4.8-2.14,6.18-3.94,3.38-4.41,7.88-7.23,11.82-11.07,4.89-4.76,8.8-10.55,14.06-14.9,4.48-3.71,8.59-8.52,13.2-11.69l18.47-12.71c2.34-1.61,6.97-3.02,7.77-5.91,2.39-8.68,0-6.45,11.5-11.08l-5.73,5.25c2.02,2.28,14.32-7.83,15.9-9.89,5.8-2.29,11.18-5.52,16.98-8.61l24.36-12.97,18.6-10.14c10.42-5.68,20.94-8.72,32.37-12.05l40.23-11.72c1.76-.51,4.32-3.9,6.51-4.48l34.57-9.16c1.15-.72,3.74-2.52,5.07-2.74l30.22-5.14c12.13-2.06,23.68-2.16,36.01-2.26L532.11,0c9.87-.09,12.47,4.15,37.49,2.21,7.64-.59,14.65.25,22.74,1.75l-5.51,1.22,7.41-.4c6.2-.33,12.6,2.66,18.7,3.6l29.02,4.49,52.46,11.78c13.38,3.01,25.6,9.64,36.71,14.51-.21,3.16,4.85,6.02,7.72,6.56,3.8.71,5.79,2.56,8.79,4.06,8.91,4.46,17.91,7.6,27.4,10.99l-2.13-3.67c16.04,6.47,21.94,12.37,36.18,21.89l1.12-2.86c2.34,1.16,3.57,2.97,5.02,5.64,1.76,1.47,5.08,4.08,7.09,5.12ZM585.06,4.18c-2.41-.24-3.56-.3-4.03-.21l4.03.21ZM18.61,429.15c2.05-2.24,1.94-6.47.87-9.14l-4.51,4.7c-.91,5.03-1.52,11.34-1.72,16.8,7.53-10.86-.76-5.66,5.36-12.35ZM485.94,1053l-4.06-.11c1.05.22,2.57.26,4.06.11ZM619.33,1054.15c-2.59-.25-2.74-.27-.43-.04,1.12.1,1.52.13.43.04Z" fill="#752039"/>
  <path d="M422.09,585.32c10.58,10.88,23.71,19.73,38.16,25.97-10.62-7.84-20.88-14.83-30.22-23.85l-5.72-4.81c-10.63-13.3-20.58-26.75-27.03-43.17-8.46-21.52-12.57-43.97-11.83-67.46,11.86,6.27,21.07,13.58,29.28,23,23.9,27.45,23.7,24.47,20.88,59.94-6.45,1.32-11.27,1.12-16.01,4.32-2.53,1.71-.84,7.93.47,10.47l56.85.09c21.36,16.22,45.96,25.48,72.72,28.33,29.93,3.19,57-3.34,86.9-12.38-24.23,20.03-52.12,31.51-80.76,39.13-29.78,7.92-60.36,7.44-89.54-1.5-67.22-20.59-97.89-91.5-103.4-156.81,3.83-.15,6.75.21,10.33,1.18,2.84,43.74,17.97,85.71,48.94,117.54ZM462.08,611.99c0-.28-.22-.5-.5-.5s-.5.22-.5.5.22.5.5.5.5-.22.5-.5ZM463.47,612.96l1.14,1.59c.23.31,1.65-.25,1.52-.63l-.51-1.47c-.13-.37-2.38.19-2.15.51Z" fill="#ad9969"/>
  <path d="M461.39,566.34h-38.05c-1.04,0-2.07-2.43-1.86-3.23s1.45-2.37,2.27-2.55l14.54-3.2c1.46-8.56,1.84-16.31,1.84-24.91v-63c.01-2.59-1.35-6.34-3.85-7.07l-11.72-3.42c-1.13-.33-1.42-3.94-.82-4.96,6.09-.48,12.66-.49,18.91.06,23.38,2.06,37.88-2.61,58.38,1.51,26.22,5.27,44.38,26.23,45.29,52.99.72,21.22-9.31,41.5-28.49,51.45-16.67,8.64-37.15,6.33-56.45,6.33ZM468.96,558.58c23.05,5.06,47.18-6.99,54.92-29.4,4.64-13.42,3.54-28.95-2.69-41.58-7.29-14.8-22.25-22.97-38.02-25.27-9.04-1.31-17.63-1.97-26.39.98l.34,73.21c.02,3.91.69,7.99,1,12,.38,4.81,5.47,8.88,10.83,10.06Z" fill="#751f38"/>
  <path d="M833.31,567.61l-22.99-24.17-41.13-45.25c-1.1,15.27.64,22.4.67,36.28l.05,23.87,12.47,2.09c1.09.18,2.74,1.15,3.25,1.91.61.91,0,4.24-1.2,4.23l-33.78-.28c-1.36-.01-1.84-3.27-1.13-3.88,3.21-2.77,6.44-.74,11.87-3.54,2.29-1.18.96-19.91.96-20.46l.13-42.95c0-2.74-.5-6.02-2.08-7.74-3.17-3.45-7.88-1.88-11.47-3.66-1.06-.53-.68-4.07-.42-5.18l21.2-1.02,8.3,8.74,8.49,9.46,22.76,25.05,22.87,24.92c.67-14.94.38-28.41-.39-42.59l-.92-16.88c-4.88-4.28-16.64.35-14.01-7.08.36-1.03,2.86-1.93,4.1-1.81,14.98,1.43,21-.21,27,.41.85.09.17,4.06-.66,4.28l-9.2,2.44c-.33,10.3-.03,20.16.33,30.67l1.03,30.06c.22,6.44.98,12.43-.26,18.92l-.7,3.69c-.16.85-4.35.32-5.15-.52Z" fill="#75223b"/>
  <path d="M720.23,466.25l-22.69.02c10.41-42.76-2.26-96.42-15.55-137.39-4.79-14.75-9.94-28.11-15.59-42.63-.4-1.03.27-3.86,1.12-4.55.99-.81,4.36-.55,5.34.37,25.91,51.69,53.07,124.32,47.37,184.19Z" fill="#741e38"/>
  <path d="M946.09,525.63c-1.91,25.66-23.67,41.31-48.06,40.98-9.64-.13-19.17-1.74-27.38-6.88-11.89-7.44-19.15-20.38-20.3-33.08-1.32-14.64,3.88-28.46,14.7-38.09,10.26-9.13,25.77-12.12,38.95-11.3,26.16,1.63,44.03,22.32,42.09,48.38ZM905.65,560.65c8.59-1.82,16.75-6.34,20.4-14.32,10.28-22.43,6.73-58.65-21.57-63.39-10.48-1.76-22.27.52-29.1,8.82-12.75,15.47-13.49,37.81-3.57,54.58,7.13,12.06,19.87,17.28,33.84,14.32Z" fill="#742139"/>
  <path d="M662.69,477.75l34.48-.09c3.29,9.55-8.71,1.37-12.79,11.48l-22.37,55.41c-2.73,6.76-4.9,13-7.22,19.94-.33.99-1.23,2.72-2,3.09-.92.45-3.2-.02-4.31-.63l-10.58-26.07-23.63-53.48c-1.36-3.08-6.19-3.39-8.92-4.42l-3.68-1.38c-.81-.3-.11-3.82.99-3.82l38.26-.27c1.33,0,3.33,1.72,3.22,2.63-.44,3.93-9.05,1.51-15.06,3.8-.09,3.23,1.25,6.57,2.53,9.56l17.5,40.68,5.33,12.61c1.97-5.14,26.97-62.32,19.34-63.34l-8.74-1.17c-.97-.13-2.42-.64-3.08-.9s-.29-3.64.73-3.64Z" fill="#75233b"/>
  <path d="M597.99,565.25l-42.5-.04c-.35-1.18-.19-4.18.55-4.81l13.8-2.21c1.5-10.64.69-20.21.6-30.66l-.1-13,.06-29.3c-5.49-2.36-13.14-.98-14.99-3.41-.59-.78-.32-4.08,1.1-4.03,12.41.46,28.33.72,41.42.31l.65,4.18-14.12,2.76-.12,51.5c-.01,6.38-.7,12.54.58,18.88,1.44,7.11,16.34.39,13.06,9.84Z" fill="#752039"/>
  <path d="M744.58,565.29l-41.7-.12c-1.26,0-2.18-4.41-.94-4.61l11.27-1.83c2.3-.37,4.09-2.56,4.08-5.23l-.31-68.41-13.72-2.25c-1.45-.24-2.75-4.88-1.24-4.88l42.09.14c1.35,0,1.07,4.43-.35,4.65-2.93.46-8.57.9-11.08,2.19-1.34.69-2.08,4.95-2.08,6.53l.2,64.94c3,3.98,13.58,2.67,13.63,4.27l.14,4.61Z" fill="#76243c"/>
  <g>
    <path d="M482.7,413.22l-3.15,18.18-56.42.08c-.68,0-3.02-.65-2.65-1.19s1.51-2.06,2.18-2.22l9.35-2.27.78-14.3.2-40.81c-4.28-4.18-3.09-.4-10.62-3.96-.65-.31.26-2.96,1.21-2.96h31.85c.51.61.79,3.56.07,3.83-5.58,2.09-6.9-.65-11.76,1.83v57.2c33.92,2.08,27.5-4.55,36.09-14.77.42-.5,2.99.67,2.87,1.35Z" fill="#772840"/>
    <path d="M500.11,405.38l-.22,22.18,19.22.13c11.69.08,9.65-12.53,15.24-12.23.6,1.2.34,4.5.03,6.21l-1.7,9.59-36.64.49c2.19-.03-16.11,2.38-13.56-1.85.31-.51,1.31-1.29,2-1.49l6.63-1.94-.27-35.94c-.02-2.72-.65-5.9-.9-8.8l-4.93-.36c-.59-.04-2.33-1.17-2.23-1.75s.66-1.36,1.25-2.06l45.3.19c1.03,5.34,1.77,9.29-1.19,14.41-5.28-4.99-3.5-10.94-10.09-10.81l-18.03.36v19.94s17.85-.3,17.85-.3c1.23-.02,2.22-3.58,2.52-4.71l.72-2.73c.21-.78,2.98.01,3.15.29l.12,18.35c0,.72-.15,2.78-.77,2.64s-1.98-1.15-2.25-1.79l-3.29-7.75-17.96-.27Z" fill="#72273d"/>
  </g>
  <path d="M863.17,864.48l-7.15-6.59c-2.84,2.43-5.47,5.14-8.11,3.08l13.7-14.87c6.91-7.5,10.96-14.68,16.44-17.72-.39,3.33-1.42,4.78-3.57,8.44l32.46,9.07c-2.35-6.84-5.81-12.38-9.75-18.36l-6.39-9.68-7.64,4.2c2.66-6.7,6.78-10.9,11.88-15.58,1.65,2.22.48,4.14-1.35,6.34l19.89,35.97c1.2,2.17,3.92,3.45,1.98,6.57-3.16-.5-6.62-1.5-9.97-2.42l-34.59-9.54c-4.05.44-8.02,4.93-9.53,9.36l27.26,25.49c2.88-2.52,4.73-4.78,7.94-2.76l-16.48,17.03c-1.6-3.76.67-5.02,3.41-8.1-6.53-6.91-13.38-13.44-20.43-19.93Z" fill="#752a40"/>
  <path d="M838.29,919.79l-22.31-24.56c-3.12,1.9-5.58,2.9-7.8.79l12.75-10.74c4-3.37,7.58-8.04,12.28-10.28,13.88-6.6,27.72-.7,32.78,10.94,4.53,10.44,1.62,20.09-6.33,27.14l-18.87,16.74c-.53.47-1.64,1.13-2.08,1.31s-1.45-.88-1.29-1.33c.95-2.7,5.09-5.37.87-10.01ZM853.32,914.32c8.67-6.99,10.4-18.37,3.82-26.65-5.01-6.3-11.8-10.46-20.07-8.28-6.28,1.65-11.75,5.33-15.5,10.83l21.86,24c2.81,3.09,6.53,2.8,9.88.09Z" fill="#75273e"/>
  <path d="M955.94,797.91c-2.98-3.06-1.49-4.52-.15-8.14l-27.95-15.27c-1.01-.55-3.2-1.31-4.18-1.23-3.18.26-4.02,5.32-7.19,3.46-.8-.47-.16-2.29.38-3.36l3.74-7.4,46.16-11.32c-3.37-3.1-26.62-14.28-27.04-13.84l-3.21,3.33c-.52.54-1.6,1.25-2.18,1.52-.72.34-1.15-2.44-.74-3.19l5.4-10.1c5.55-10.39.35,3.36,3.84,5.21l36.95,19.54c-2.67,2.68-4.86,3.42-7.7,4.12l-41.75,10.3,27.23,14.27,5.26-6.27c3.01,1.1,1.59,3.57.58,5.34l-7.47,13.04Z" fill="#752a40"/>
  <path d="M996.19,713.55c-1.35,14.1-11.82,26.29-26.6,24.69-11-1.19-20.26-9.28-20.97-21.51-.48-8.2,3.24-17.41,9.5-23.16s16.23-6.53,23.47-3.66c10.17,4.03,15.61,13.02,14.6,23.63ZM977.75,731.06c7.37-.62,12.06-5.31,14.04-10.64,2.15-5.78,1.65-11.97-3.15-16.67-8.04-7.88-24.61-13.54-33.02-2.12-3.56,4.84-5.31,11.92-1.58,17.76,4.89,7.66,14.25,12.47,23.71,11.67Z" fill="#75283e"/>
  <path d="M919.28,815.33l10.1,13.49,3.9-3.55c.49-.45,1.45-.87,2.06-1.04s.58,2.63.16,3.17l-9.05,11.92c-.21.28-1.44.64-1.78.76-2.79,1.04,3.88-5.11.27-10.2l-22.91-32.3c-.73-1.02-1.66-2.54-1.98-3.53-.34-1.05,2.57-2.49,3.79-2.18l42.87,10.67c1.92-1.58,3.95-3.06,6.68-2.74-2.08,3.85-8.43,14.34-11.09,16.12-.39.26-1.71-.12-1.62-.58l.48-2.37.81-4.35-15.06-4.42-7.63,11.12ZM923.67,803.31l-16.06-3.56,9.09,13.2,6.97-9.64Z" fill="#752a40"/>
  <path d="M873.93,126.56c2.6,1.32,4.34,3.44,6.41,5.67.82,2.5,1.49,5.14,1.85,8.59-5.86,2.27-8.08-5.66-21.56-13.96l-5.8-3.57c-4.03-2.48-7.46-5.71-11.3-9.02,1.47-.43,3.95-.23,5.44.55l13.54,7.07c.71.37,1.77,2.46,2.51,2.35l3.61-.55c1.49-.23,3.9,2.16,5.31,2.87ZM868.13,126.05c.06.74,1.05,3.14,1.19,2.62l.56-2.1c.09-.35-1.78-.88-1.75-.52Z" fill="#783347"/>
  <path d="M422.09,585.32c1.12-.37,2.08-1.54,2.22-2.69l5.72,4.81c9.34,9.02,19.6,16.01,30.22,23.85-14.45-6.24-27.58-15.09-38.16-25.97Z" fill="#eee6d3"/>
  <path d="M821.25,88.4l1.19-.55c.27-.13.08-.39-.14-.95l11.79,6.07c3.1,1.6,6.25,5.34,8.78,8.23l-5.92-2.89-2.87,3.01-11.93-7.34c-.21-.13-1.01-2.21-.98-2.2.02.01.95-.05,1.2-.06l1.97-.08-3.07-3.23ZM834.33,97.15c-2.59-.25-2.74-.27-.43-.04,1.12.1,1.52.13.43.04Z" fill="#815461"/>
  <path d="M18.12,457.38c.05.2-1.93-1.85-1.93-2.5l.15-17.13,4.11,5.85,1.52-6.18c.18,1.42.72,3.97,1.06,5.46-.88,4.99-2.22,10.44-4.92,14.51Z" fill="#efdde2"/>
  <path d="M629.97,1048.42l-.09,1.62-15.9,2.58,2.17,1.88-4.5-1.55-8.57.54c-1.61.1-3.85,1.24-3.87,2.61l-1.04.19-4.09-2.42c17.28-5.55,9.68-.4,25.31-4.82,2.7-.76,8-.66,10.58-.64Z" fill="#8b6570"/>
  <path d="M52.16,340.47c-2.78,7.02-6.79,21.44-8.63,28.46l-2.74.79c-.33.09-.05-.55.39-1.4l8.94-28.47c.22-.7,1.9-2.41,1.95-2.41.22.73.38,2.31.09,3.04Z" fill="#7a4756"/>
  <path d="M1050.47,413.88l-7.02-23.39c-1-3.34-2.16-5.71-5.22-6.58,1.02-.46,2.21-.78,2.45-1.35l1.24-3,10.63,35.57c.18.61-1.09,2.18-1.2,1.8l-.87-3.05Z" fill="#8b6570"/>
  <path d="M726.08,1020.44c-.31,1.34-2.08,2.28-3.71,3.45-2.95,2.12-5.64,5.51-9.23,5.85-11.03,1.05-9.56,3.99-18.25,3.31,1.55-3.04,3.63-3.02,6.17-3.22,9.46-.73,16.95-6.03,25.01-9.4Z" fill="#815461"/>
  <path d="M1021.08,320.31c-2.25-3.7-4.6-7.85-6.28-11.53l3.18,2.41c.62.47,2.9.17,2.65,0l.27-4.79c3.6,5,4.96,9.35,6.37,15.18l-2.78-2.44c-.59-.51-1.58.33-3.41,1.16Z" fill="#7a4756"/>
  <path d="M685.08,31.8c.26.24.7.68,1,.81,4.94,2.05,14.63,5.65,20.22,7.09l.86,2.8c-9.67-3.34-19.31-6.74-29.2-9.22l5.13-1.61,1.99.13Z" fill="#7a4756"/>
  <path d="M590.84,21.12c1.34-3.34,29.42-2.59,32.95,1.73l-23.7-1.41-9.25-.32Z" fill="#5e2f38"/>
  <path d="M905.9,156.57c1.87,2.33,4.71,3.55,7.8,3.5l3.39,2.45c.82.59,1.67,2.49,1.88,3.49s-2.9,2.6-3.69,1.97l-10.09-8c-.37-.3-1.29-2.57-.86-2.75l1.57-.66Z" fill="#783347"/>
  <path d="M52.96,726.49l-6.99-11.66c.55-3.09.95-5.39.26-7.34-.5-1.42-.48-5.03.62-6.05,2.33,6.64,5.15,18.79,6.11,25.05Z" fill="#783347"/>
  <path d="M986.91,267.05l-5-4.62c-.4-10.37-5.6-2.29-7.8-21.84l4.75,9.03c3.14,9.36,6.59,10.21,8.04,17.43Z" fill="#815461"/>
  <path d="M262.44,97.98c-.12-.7-8.19,12.13-15.96,8.87l15.42-12.1.54,3.23Z" fill="#783347"/>
  <path d="M892.89,140.29l-.94.06c-3.77-2.86-7.76-5.79-11.6-8.12-2.07-2.23-3.81-4.35-6.41-5.67,6.29-1.41,16.45,8.38,18.96,13.73Z" fill="#815461"/>
  <path d="M143.37,187.69c.32-.15.92-.54.91-.91,3.34-.18,6.33-.99,10.2-1.97-6.03,5.11-8.9,9.06-12.75,14.71l1.65-11.83Z" fill="#783347"/>
  <path d="M934.23,176.21c4.73,2.85,18.27,13.47,12.75,16.71l-12.75-16.71Z" fill="#7a4756"/>
  <path d="M322,68.48l-.86-2.22c6.91-4.75,11.88-7.64,20.99-10.82-4.49,4.39-13.19,8.47-20.13,13.04Z" fill="#815461"/>
  <path d="M72.14,297.37c-.62,5.83-3.2,11.72-7.77,16.2l-1.59-.08,5.82-13.5c.55-1.27,2.26-2.56,3.54-2.62Z" fill="#efdde2"/>
  <path d="M683.09,31.67l-5.13,1.61c-2.53-.63-5.21-2.06-7.92-3.21l.95,4.61c.09,0-1.92.05-2.57.08-.99.04,2.1-4.67-.19-4.95l-2.16-.27c-.35-.04-1.33-.82-1.56-1.09-.22-.26-.25-1.12.08-1.05,5.71,1.24,6.3,4.2,11.15,1.88,1.82-.87,5.99,1.08,7.36,2.38Z" fill="#b4939d"/>
  <path d="M947.61,205.71c1.57,4.08-11.19-9.15-8.42-5.79-1.71-2.08-3.72-6.23-4.84-8.86,5.46,5.23,9.43,9.08,13.26,14.65Z" fill="#815461"/>
  <path d="M917.09,162.52l-3.39-2.45c-3.1.05-5.93-1.17-7.8-3.5l1.06-.95-8.74-9.25,11.12,8.38c1.79.46,4.12,1.51,5.06,3.13l2.68,4.63Z" fill="#b4939d"/>
  <path d="M542.01,1055.44l-8.26.18-.15,2.46c-.02.39-1.14.4-1.53.45l-.07-2.54c-.04-1.7-10.29,1.21-14.05-2.18,8-1.29,12.35,1.43,23.14.77l.91.86Z" fill="#d2b6bd"/>
  <path d="M244.02,84.22c2.86-2.13,6.75-3.29,10.17-4.65-1.59,2.07-13.89,12.18-15.9,9.89l5.73-5.25Z" fill="#d2b6bd"/>
  <path d="M52.96,726.49c.12.78-.39,2.41-.67,3-5.07-12.35-6.99-5.57-7.96-18.07.93.03,1.84-.59,1.85-1.31l.05-2.62c.68,1.95.29,4.25-.26,7.34l6.99,11.66Z" fill="#b4939d"/>
  <path d="M636.24,19.94c-5.94,1.08-11.9.33-17.6-1.78,6.29-.13,11.63.43,17.6,1.78Z" fill="#8b6570"/>
  <path d="M61.08,751.49c.35.39,1.32,1.73.88,2.18l-1.77,1.82c-3.45-5.22-5.68-11.07-8.14-16.83,4.04,4.31,5.6,7.79,8.36,13.36-.45.36.23-.18.67-.53Z" fill="#d2b6bd"/>
  <path d="M145.34,876.28l4.25,2.02c2.28,1.09,4.16,3.12,4.15,6.12-3.45-2.55-6.28-5.11-8.41-8.14Z" fill="#8b6570"/>
  <path d="M145.34,876.28l-2.15-.94c-.96-.42-2.1-1.14-2.75-1.67-.53-.43-.24-2.48-.2-2.94,2.01,1.57,3.65,3.49,5.1,5.55Z" fill="#8b6570"/>
  <path d="M594.08,1053.88l4.09,2.42-14.86,1.73c3.42-1.86,6.04-2.52,8.85-3.53l1.92-.62Z" fill="#d2b6bd"/>
  <path d="M797.33,80.04c1.89.4,3.63,1.57,4.74,3.13-.29.53-1.82,3.16-2.42,2.49l-2.7-2.99-1.32-1.46c-.2-.22-.2-.44.12-.56l1.59-.61Z" fill="#efdde2"/>
  <path d="M641.18,1046.56c-1.9,1.18-5.48,2.57-8.18,1.69,2.08-1.66,5.35-1.97,8.18-1.69Z" fill="#8b6570"/>
  <path d="M891.95,140.35l.94-.06,4.8,3.29c-1.12,1.86-2.22,2.27-2.86.98l-2.88-4.22Z" fill="#b4939d"/>
  <path d="M808.08,86.49c-.92-.25-2.2-.7-2.82-1.27l2.82,1.27Z" fill="#efdde2"/>
  <path d="M709.15,38.46l-2,1.17,2-1.17Z" fill="#7a4756"/>
  <path d="M803.23,86.73l1.34,2.63-1.34-2.63Z" fill="#efdde2"/>
  <circle cx="844.58" cy="101.99" r=".5" fill="#815461"/>
  <path d="M686.08,32.6c-.3-.12-.74-.57-1-.81l1,.81Z" fill="#b4939d"/>
  <path d="M18.61,429.15c-6.12,6.69,2.17,1.49-5.36,12.35.2-5.45.81-11.76,1.72-16.8l4.51-4.7c1.08,2.67,1.19,6.9-.87,9.14Z" fill="#efdde2"/>
  <path d="M616.15,1054.5c-6.4,3.46-14.11,3.83-22.44,4.34l4.46-2.54,1.04-.19c2.2.84,4.74.89,7.17-.63l-3.31-1.98,8.57-.54,4.5,1.55Z" fill="#efdde2"/>
  <path d="M619.33,1054.15c1.08.09.69.06-.43-.04-2.31-.23-2.16-.21.43.04Z" fill="#efdde2"/>
  <path d="M463.47,612.96c-.23-.32,2.02-.88,2.15-.51l.51,1.47c.13.37-1.3.94-1.52.63l-1.14-1.59Z" fill="#eee6d3"/>
  <circle cx="461.58" cy="611.99" r=".5" fill="#eee6d3"/>
  <path d="M853.32,914.32c-3.36,2.71-7.07,3-9.88-.09l-21.86-24c3.75-5.5,9.22-9.18,15.5-10.83,8.27-2.18,15.05,1.98,20.07,8.28,6.59,8.28,4.85,19.66-3.82,26.65Z" fill="#f8f6f8"/>
  <g>
    <path d="M744.08,989.5c-.61.33-2.48.5-2.94.5-.6,0-.38-2.24.07-2.66l4.32-3.98-14.8-28.32c-.68-1.29-1.68-2.9-2.34-3.71-1.19-1.47-2.47,1.6-7.78.62-.64-.12.58-2.27,1.26-2.66l15.23-8.68c5.58-3.18,13.62-5.15,18.52-1.24,4.2,3.34,3.56,9.09,1.17,13.12,8.95.4,16.62,5.53,14.89,15.03-.47,2.56-3.12,7.4-4.87,9.58l-22.75,12.38ZM741.94,960.43c5.91-2.3,7.92-4.13,10.22-8.25.11-3.43-.52-7.16-3.09-9.12-2.2-1.68-6.71-1.65-9.24-.07l-5.39,3.36,7.5,14.08ZM752.19,979.83c6.39-.99,10.16-3.09,12.21-8.07,2.2-5.33-1.46-12.13-7.5-12.82-4.99-.57-9.59,1.79-13.1,5.22l8.4,15.67Z" fill="#75283e"/>
    <path d="M796.48,955.56l-7.99-11.74c-7.9-3.99-18.91-8.64-26.69-10.79-.94-.26-3.56,1.12-4.31,1.14-.95.02-1.58-2.74-.71-3.26l16.29-9.53c1.75,2.38-.59,4.09-2.92,6.46l20,8.76-.26-22.48c-3.24,1.31-4.86,2.35-7.1.44l9.14-6.21c1.76-1.2,4.07-2.3,5.71-2.13-2.55,6.99-3.92,12.19-3.88,19.37.08,16.4-1.17,11.26,8.81,25.63l7.93-2.04c1.46,4.3-5.95,5.04-13.8,11.94-1.63,1.43-4.47,2.42-5.76.71l5.55-6.26Z" fill="#752a40"/>
    <path d="M752.19,979.83l-8.4-15.67c3.51-3.43,8.11-5.79,13.1-5.22,6.04.69,9.7,7.49,7.5,12.82-2.05,4.98-5.82,7.08-12.21,8.07Z" fill="#f5f1f3"/>
    <path d="M741.94,960.43l-7.5-14.08,5.39-3.36c2.52-1.57,7.04-1.6,9.24.07,2.57,1.96,3.2,5.7,3.09,9.12-2.3,4.11-4.31,5.94-10.22,8.25Z" fill="#f5f1f3"/>
  </g>
  <polygon points="923.67 803.31 916.69 812.96 907.61 799.75 923.67 803.31" fill="#efdde2"/>
  <path d="M603.08,1053.49l3.31,1.98c-2.43,1.52-4.97,1.47-7.17.63.02-1.38,2.26-2.51,3.87-2.61Z" fill="#d2b6bd"/>
  <g>
    <path d="M408.16,186.4c-4.76,2.89-16.57-1.95-19.56,3.96-1.27,2.52-.47,6.04,1.41,8.07l.24,1.47c.06.36,1.15.47,1.67.49l12.13.45.06,75.71c0,1.34-.29,3.78-1.08,4.41-3.78,3.03-7.95.75-7.04,2.48l-1.71.03c-.57-.51-2.12-1.28-2.11-.59.01.94.13,2.34-.06,2.82l-21.54,55.54c-22.09,56.98-30.84,116.42-16.44,175.02,19.29,78.51,83.2,128.45,163.48,132.72,18.93,1.01,36.48-2.28,54.51-7.5,32.33-9.35,59.39-27.43,81.75-52.2,6.52-7.22,19.4-7.36,27.55-3.31l-28.96,33.85c15.26-5.21,26.94-15.56,36.56-27.53,5.24-6.52,13.14-11.3,21.42-8.1,1.92.74,2.55,5.46,2.05,7.54l-14.99,61.33c-1.09,4.46-4.4,6.77-9.18,6.8l-22.22.11h-52.76s-21.33-.56-21.33-.56c-11.16-.29-20.92,5.45-29.07,12.96-14.57,13.43-23.88,30.82-28.99,50.14-11.43,43.21-10.87,110.36-7.36,155.1,1,12.8,3.76,24.61,7.77,36.47,8.66,25.62,29.7,40.86,55.73,45.48l39.9,7.08c3.83.68,6.87,1.72,10.79,3.79-2.87,3.27-5.92,4.01-9.65,3.96l-32.73-.38-105.28-1.17-72.26,1.23c-12.5.21-24.8.42-37.23.04-1.5-1.88.92-5.55,3.28-5.94l39.41-6.51c34.54-5.7,59.97-22.36,67.88-58.29,9.09-41.31,6.96-97.42,4.4-140.07-1.66-27.78-6.61-55.54-24.84-77.48-6.42-7.73-13.87-14.02-21.21-20.7-4.02-3.66-7.77-5.69-13.61-5.69l-162.42-.04c-2.36-1.28-2.91-5.19-2.1-6.96.64-1.4,2.8-3.24,4.57-3.67l17.97-4.36c12.33-2.99,23.33-11.7,26.55-24.34,2.32-9.11,4.21-18.2,4.21-28V202.29c0-14.79-7.2-27.46-19.05-35.48-20.19-13.66-36.52-8.53-35.62-15.88.16-1.32,2.12-2.71,4.1-2.71h175.86c2.12,0,3.59,2.19,3.51,3.85-.06,1.24-1.87,2.85-3.53,3.12-19.17,3.02-38.98,12.23-44.84,31.21Z" fill="#741a34"/>
    <path d="M405.28,199.49c-5.17-.01-10.36.18-15.27-1.06-1.88-2.03-2.68-5.55-1.41-8.07,2.99-5.91,14.8-1.06,19.56-3.96,4.85.78,9.82.92,15.16.61,14.76-.84,53.88-2.95,62.11-16.22,7.71-12.42-29.79-25.52-37.77-28.02-52.73-16.5-133.11-25.36-187.67-17.52-8.66,1.24-35.14,5.99-35.06,16.74.07,9.32,20.13,18.24,28.46,21.37,18.47,6.94,37.23,11.4,56.73,14.98,3.9.71,6.14,3.38,6.15,6.39.01,2.58-2.22,6.85-5.89,6.21-26.44-4.6-58.59-13.42-81.8-27.11-10.02-5.92-24.23-18.04-15.73-30.59.27-.4.97-1.65.55-1.68-.3-.02-1.27-.01-1.41,0,3.76-3.02,12.28-7.26,15.87-10.95l1.25,1.16c15.93-5.26,31.33-8.64,48.35-9.94,59.88-4.59,137.86,3.29,193.36,27.93,10.95,4.86,36.87,19.21,29.57,34.25-11.01,22.68-73.61,25.53-95.11,25.48Z" fill="#ad9a6b"/>
    <path d="M405.28,199.49l-.3,81.54c-1.74,2.86-6.71,2.64-8.99,2.42-.91-1.73,3.26.55,7.04-2.48.79-.63,1.08-3.08,1.08-4.41l-.06-75.71-12.13-.45c-.52-.02-1.62-.12-1.67-.49l-.24-1.47c4.92,1.24,10.1,1.05,15.27,1.06Z" fill="#5e2f38"/>
    <path d="M394.28,283.47l-2.17,2.23c.19-.48.08-1.89.06-2.82-.01-.69,1.53.08,2.11.59Z" fill="#5e2f38"/>
  </g>
</svg>